<svg xmlns="http://www.w3.org/2000/svg" id="Ebene_1" width="193.615" height="59.9" data-name="Ebene 1" version="1.1"><defs id="defs4"><style id="style2">.cls-1{fill:#008bce}.cls-2{fill:#fff}</style></defs><path id="path38" d="M26.56 27.16a2.48 2.48 0 1 0 2.47 2.47 2.47 2.47 0 0 0-2.47-2.47z" class="cls-2" style="fill:#2c679f;fill-opacity:1"/><path id="path40" d="M27.82 19.22a130.54 130.54 0 0 0 13.77 12.39 6.42 6.42 0 0 0-1.52 1.74 4.62 4.62 0 0 0 .2 5.39 5.67 5.67 0 0 0 4.47 2.15 4.38 4.38 0 0 0 3.38-1.68 5 5 0 0 0 1.1-3.91 5.18 5.18 0 0 0-.53-1.62 7.93 7.93 0 0 1 4.51 3.33 8.62 8.62 0 0 1 1.15 6.67c-.81 2.66-1.94 4.84-5 6.16-7.94 3.41-14.91-3.24-18.29-7.37-.59-.72-1.19-1.36-1.92-.76-.73.6-.44 1.43.09 2.21a22.44 22.44 0 0 0 9 8.16 14 14 0 0 0 11.88.67 12.27 12.27 0 0 0 7.17-7.92 11.45 11.45 0 0 0-1.23-9.16 11.63 11.63 0 0 0-7.6-5.54 9.34 9.34 0 0 0-3.34-.1 122.68 122.68 0 0 1-14.09-12.35c4.37-2.84 5.3-6.68 4.86-15.26L35.75 0l-2.24 1c-5.26 2.24-8.33 5-9 8.93a11.18 11.18 0 0 0 .86 6.46 20.22 20.22 0 0 1-5.86.2C19.36 11 17.62 3.42 8.6.79L6.37.08v2.35c.12 12 4.73 16.25 9.51 17.1h.2v.09c-.11 4.3-4.27 23.69-16.08 38q1.21 1.19 2.51 2.28c12.08-14.34 16.68-34.15 17-40a20.81 20.81 0 0 0 8.31-.68zm16.55 15.17a2.06 2.06 0 1 1-2.06 2.06 2.06 2.06 0 0 1 2.06-2.06zM27.86 10.51a9.45 9.45 0 0 1 5.51-6.54c.38 6.61-1.86 9.65-4.68 11.21l-.16-.18c-.59-.68-.93-3-.67-4.49Zm-19.16-7c6.54 2.47 7.22 8.17 7.38 12.55-3.05-.76-6.65-4.71-7.38-12.55Z" class="cls-2" style="display:inline;fill:#2c679f;fill-opacity:1"/><g id="path21244" class="cls-1" style="display:inline" transform="translate(-22.17 -9.07)"><g id="path1146"><path id="path1168" d="M162.254 15.94a1.728 1.728 0 0 0-.381.025 1.653 1.653 0 0 0-1.375 1.639v14.103l-.652.121c-2.684.506-5.184.576-7.125.412h-.002l-.248-.023-.196-.16c-2.85-2.371-6.405-2.554-9.257-1.223-2.853 1.331-4.995 4.171-5.01 7.879v6.365c0 .452.038.902.11 1.348l.05.32-.186.264c-1.242 1.783-2.692 2.867-4.386 3.191l-.952.182v-11.67c0-2.688-.774-4.865-2.07-6.36-1.297-1.495-3.11-2.343-5.4-2.343-1.679 0-3.47.726-5.24 2.365l-1.344 1.246v-1.928c-.011-.61-.214-.963-.514-1.226-.296-.26-.716-.406-1.148-.406-.432 0-.855.147-1.15.406-.3.263-.503.616-.514 1.226V45.415l-.102.179v.002c-1.446 2.586-3.128 4.1-5.2 4.496l-.95.182v-11.67c0-2.688-.775-4.866-2.07-6.36-1.297-1.494-3.111-2.342-5.401-2.342-1.584 0-3.27.655-4.947 2.11l-1.135.986-.182-1.492c-.068-.558-.294-.918-.597-1.147-.304-.229-.696-.326-1.11-.312-.413.014-.8.137-1.088.385-.287.248-.485.62-.517 1.18v14.872l-.217.233c-1.429 1.524-3.462 2.964-4.92 3.803l-1.2.689V31.508c0-.626-.198-.985-.5-1.252-.295-.263-.725-.412-1.163-.412-.438 0-.868.149-1.164.412-.301.267-.5.626-.5 1.252v13.65l-.002.031a5.569 5.569 0 0 1-5.367 5.124h-.024a5.422 5.422 0 0 1-5.402-5.409v-13.13c-.011-.61-.214-.964-.514-1.227-.295-.26-.719-.406-1.15-.406-.432 0-.853.147-1.149.406-.3.263-.502.616-.513 1.226V44.905c0 4.78 4.232 8.702 8.078 8.702 1.468 0 3.24-.789 4.726-2.13l1.227-1.108.107 1.65c.039.606.4 1.14.95 1.399l.005.002.13.076.005.006c.018.013.158.09.486.082H83.966l.032-.002c.076-.005.155-.013.244-.025 1.99-.28 4.373-1.47 6.418-3.13l1.305-1.058v2.625c0 .93.734 1.663 1.664 1.662a1.65 1.65 0 0 0 1.664-1.65v-15.53l.094-.175c1.287-2.423 3.599-3.106 5.793-3.106 1.806 0 3.049 1.036 3.7 2.19.65 1.147.829 2.39.829 3.21v13.382c0 .93.734 1.664 1.664 1.664h.156c2.15 0 4.223-1.114 6.328-3.559l1.407-1.635v3.655c0 .93.732 1.663 1.662 1.664a1.65 1.65 0 0 0 1.664-1.65V37.366l.056-.142c.593-1.525 1.523-2.557 2.627-3.155 1.103-.596 2.33-.765 3.54-.765 1.806 0 3.049 1.035 3.7 2.19.649 1.147.829 2.39.829 3.21v13.38c0 .93.734 1.663 1.664 1.663h.156c2.33 0 4.583-1.312 6.857-4.2l.71-.9.601.979a8.702 8.702 0 0 0 7.383 4.154 8.698 8.698 0 0 0 8.701-8.734v-6.324a8.702 8.702 0 0 0-.285-2.108v-.002l-.248-.945.976-.057a21.754 21.754 0 0 0 3.66-.533l.981-.228V52.1c0 .93.734 1.665 1.664 1.665 3.565 0 6.591-1.42 9.397-4.334l.845-.88.469 1.126c.364.87.811 1.614 1.32 2.127v.002h.002a6.898 6.898 0 0 0 5.076 1.982H179.297c2.491 0 4.581-1.02 6.771-2.9 2.186-1.876 4.417-4.603 7.018-7.838l-.002-.002c.299-.392.387-.745.38-1.018-.005-.263-.113-.441-.175-.5-.619-.253-1.315-.066-1.682.5l-.023.035-.025.03-.002.004c-2.147 2.671-4.133 4.885-6.13 6.462-1.997 1.579-4.043 2.534-6.222 2.534-1.703 0-3.375-1.373-4.055-3.735l-.199-.697.674-.266c3.774-1.501 6.58-3.026 8.385-4.603 1.806-1.579 2.61-3.135 2.61-4.94 0-2.203-.548-3.876-1.597-5.002-1.05-1.126-2.65-1.787-5.045-1.787-4.211 0-8.58 3.513-8.58 10.807v.004s-.01 2.045.352 4.46v.003l.05.326-.197.268a10.878 10.878 0 0 1-6.835 4.246l-.944.168V33.656l.469-.215h.002c3.43-1.557 6.761-3.925 9.559-7.062l.01-.01v-.002c.376-.42.592-.863.636-1.158a.745.745 0 0 0-.011-.361c-.033-.094-.098-.184-.229-.295-.1-.084-.374-.169-.756-.082a2.32 2.32 0 0 0-1.164.71c-2.137 2.4-4.742 4.051-7.408 5.153l-1.108.457V17.603c0-.92-.7-1.621-1.566-1.664zm17.703 17.396c1.386-.037 2.42.356 3.031 1.082.609.722.73 1.62.73 2.406 0 .992-.62 2.043-1.876 3.229-1.26 1.187-3.22 2.49-6.139 3.75l-1.039.445-.076-1.129c-.05-.764-.05-1.53 0-2.295v-.01a15.099 15.099 0 0 1 .02-.32 13.5 13.5 0 0 1 .091-.818c.095-.67.268-1.559.596-2.467.327-.908.808-1.847 1.564-2.592.614-.604 1.467-1.108 2.446-1.262l.01-.002zm-33.576.035.275.25c.55.502 1.416 1.012 2.793 1.395h.002l.006.002.008.002c.362.085.728.16 1.094.226l.312.059.19.254a5.414 5.414 0 0 1 1.059 3.144v6.364c.05 3.012-2.395 5.5-5.409 5.5-3.013 0-5.459-2.488-5.408-5.5v-6.329a5.415 5.415 0 0 1 4.711-5.318l.299-.039z" style="color:#000;display:inline;fill:#2c679f;stroke-width:.3;-inkscape-stroke:none" transform="translate(22.17 9.07)"/></g></g></svg>